<svg xmlns="http://www.w3.org/2000/svg" viewBox="0 0 200 200" role="img" aria-labelledby="title desc">
  <title id="title">acfinds AllChinaBuy spreadsheet logo</title>
  <desc id="desc">Turquoise acfinds logo for AllChinaBuy spreadsheet streetwear finds and links.</desc>
  <rect width="200" height="200" rx="32" fill="#12b9bb"/>
  <path fill="#fff" d="M69 112c-10 0-20-6-24-15-2-4 2-8 6-6l17 8c4 2 8-1 8-5V69c0-6 7-9 12-5l9 7c3 2 7 2 10 0l9-7c5-4 12-1 12 5v25c0 4 4 7 8 5l17-8c4-2 8 2 6 6-4 9-14 15-24 15h-2l-8 31c-1 5-6 8-11 8H90c-5 0-10-3-11-8l-8-31h-2Z"/>
  <path fill="#fff" d="M81 69 55 32c-4-6 4-12 9-7l33 31-16 13Zm38 0 26-37c4-6-4-12-9-7L103 56l16 13Z"/>
  <circle cx="89" cy="103" r="6" fill="#12b9bb"/>
  <circle cx="111" cy="103" r="6" fill="#12b9bb"/>
  <path fill="none" stroke="#fff" stroke-width="10" stroke-linecap="round" d="M61 116v19c0 12 8 20 20 20m58-39v19c0 12-8 20-20 20"/>
</svg>
